<?xml version="1.0" encoding="utf-8"?>
<!-- Generator: Adobe Illustrator 21.0.0, SVG Export Plug-In . SVG Version: 6.00 Build 0)  -->
<svg version="1.1" id="圖層_1" xmlns="http://www.w3.org/2000/svg" xmlns:xlink="http://www.w3.org/1999/xlink" x="0px" y="0px"
	 viewBox="0 0 300 89" style="enable-background:new 0 0 300 89;" xml:space="preserve">
<style type="text/css">
	.st0{fill:none;}
	.st1{fill:#8E714E;}
	.st2{fill:#442D22;}
	.st3{fill:#FFFFFF;}
	.st4{fill:#A6A385;}
	.st5{fill:#499D4A;}
	.st6{fill:#58AA50;}
</style>
<g>
	<title>background</title>
	<rect id="canvas_background" x="-1" y="-107" class="st0" width="302" height="302"/>
</g>
<g>
	<title>Layer 1</title>
	<g id="svg_9">
		<path id="svg_1" class="st1" d="M274.2,36.9c-0.3,0-0.5,0.6-0.5,0.9c-0.1,2-0.1,7.3-0.1,10.9c0,0.1,0.2,0.3,0.3,0.3
			c0.8,0,2.7,0.1,4.3,0.1c2.2,0,3.5-0.3,4.3-0.6c1.9-0.9,2.8-2.8,2.8-5c0-4.8-3.5-6.7-8.8-6.7C276,36.8,275,36.8,274.2,36.9z
			 M287.6,59.2c0-4.9-3.8-7.7-10.7-7.7c-0.3,0-2.5-0.1-3,0c-0.2,0.1-0.4,0.2-0.4,0.3c0,3.5-0.1,9.2,0.1,11.4
			c0.1,0.9,0.8,2.3,1.7,2.7c0.9,0.5,3.1,0.6,4.5,0.6C284,66.6,287.6,64.4,287.6,59.2L287.6,59.2L287.6,59.2z M263.6,34.2
			c0.5,0,2.1,0.1,6.1,0.1c3.8,0,6.8-0.1,10.5-0.1c4.5,0,10.8,1.5,10.8,8c0,3.2-2.3,5.7-5.4,7c-0.2,0-0.2,0.1,0,0.2
			c4.4,1,8.2,3.6,8.2,8.5c0,4.8-3.1,7.8-7.6,9.7c-2.8,1.1-6.2,1.5-9.7,1.5c-2.7,0-9.8-0.3-13.7-0.2c-0.4-0.2,0.4-1.9,0.7-2.2
			c0.9-0.1,1.7-0.1,2.7-0.4c1.4-0.3,1.6-0.7,1.8-2.8c0.1-1.7,0.1-7.9,0.1-12.3c0-6,0.1-10.1,0-12.1c-0.1-1.5-0.6-2-1.8-2.3
			c-0.9-0.1-2.3-0.3-3.5-0.5C262.4,36.1,263.3,34.4,263.6,34.2L263.6,34.2z M233.6,65.2c1.2,0.9,3.7,1.3,5.9,1.3
			c2.8,0,5.6-0.5,8.3-2.8c2.8-2.4,4.7-6.1,4.7-12c0-5.6-2.2-10.2-6.8-12.9c-2.6-1.5-5.9-2.2-9.8-2.2c-1.1,0-2.2,0-2.9,0.3
			c-0.2,0.1-0.5,0.5-0.5,0.8c-0.1,1-0.1,8.7-0.1,13.2c0,4.6,0,11.1,0.1,11.9C232.4,63.6,232.8,64.7,233.6,65.2L233.6,65.2
			L233.6,65.2z M221.7,34.2c1,0,4.8,0.1,6.6,0.1c3.3,0,5.6-0.1,11.8-0.1c5.2,0,9.6,1.3,12.7,3.9c3.8,3.1,5.8,7.5,5.8,12.8
			c0,7.5-3.6,11.9-7.2,14.4c-3.6,2.5-8.3,4-14.9,4c-3.5,0-9.6-0.1-14.7-0.2h-0.1c-0.3-0.4,0.4-2.2,0.8-2.2c1.4-0.1,1.7-0.2,2.4-0.4
			c1.1-0.4,1.3-0.9,1.5-2.8c0.2-3.4,0.1-7.6,0.1-12.3c0-3.3,0.1-9.9-0.1-12c-0.2-1.7-0.9-2.2-2.5-2.5c-0.8-0.1-1.8-0.3-3.3-0.5
			C220.6,36,221.5,34.5,221.7,34.2L221.7,34.2L221.7,34.2z"/>
		<path id="svg_2" class="st2" d="M158.8,67.2c-1.3-0.2-2.2-0.3-3.4-0.8c-0.2-0.1-0.4-0.6-0.4-0.8c-0.1-1.7-0.1-6.7-0.1-10.1
			c0-2.7-0.5-5-1.7-6.7c-1.4-1.9-3.4-3-6-3c-2.3,0-5.4,1.5-7.9,3.6c-0.1,0-0.5,0.4-0.4-0.2c0-0.5,0.1-1.6,0.2-2.4
			c0.1-0.7-0.4-1-0.4-1c-1.7,0.8-6.3,1.8-8.1,2c-1.2,0.3-1.6,1.4-0.3,1.8h0.1c1.4,0.4,2.3,0.8,3.1,1.3c0.5,0.4,0.5,0.9,0.5,1.4
			c0.1,3.7,0.1,9.5-0.1,12.6c-0.1,1.2-0.4,1.7-1.4,1.9l0.1,0c-0.7,0.1-1.3,0.3-2.2,0.4c-0.3,0.3-0.3,1.9,0,2.2
			c0.6,0,3.6-0.1,6.1-0.1c3.4,0,5.2,0.1,6.1,0.1c0.4-0.4,0.5-1.9,0.3-2.2c-1,0-1.7-0.1-2.4-0.3c-0.9-0.2-1.2-0.6-1.2-1.7
			c-0.1-2.6-0.1-8.2-0.1-12c0-1,0.3-1.5,0.6-1.8c1.2-1,3.1-1.7,4.8-1.7c1.7,0,2.8,0.5,3.6,1.1c1.1,0.9,1.5,2.2,1.7,3.1
			c0.3,2.1,0.2,6.4,0.2,10.1c0,2-0.2,2.5-0.9,2.7c-0.4,0.2-1.3,0.4-2.4,0.4c-0.4,0.4-0.3,1.9,0,2.2c1.5,0,3.3-0.2,5.9-0.2
			c3.2,0,5.3,0.2,6.1,0.2C158.9,69,159,67.6,158.8,67.2L158.8,67.2z M173.2,48.1c-2.8,0-4.5,2-4.5,5.2c0,3.2,1.5,7,5.8,7
			c0.7,0,2.1-0.3,2.7-1c1-0.9,1.7-2.7,1.7-4.6C178.9,50.6,176.7,48.1,173.2,48.1L173.2,48.1L173.2,48.1z M172.8,70.2
			c-1,0-1.8,0.3-2.2,0.5c-2.2,1.3-3.2,2.6-3.2,4.2c0,1.4,0.6,2.6,1.8,3.6c1.5,1.2,3.6,1.8,6.2,1.8c5.3,0,7.6-2.7,7.6-5.4
			c0-1.9-1-3.1-3-3.8C178.7,70.5,176,70.2,172.8,70.2L172.8,70.2z M173.2,83.2c-3.2,0-5.5-0.6-7.4-2.1c-1.9-1.4-2.8-3.5-2.8-4.9
			c0-0.4,0.1-1.5,1-2.5c0.6-0.6,1.8-1.7,4.8-3.7c0.1-0.1,0.2-0.1,0.2-0.2c0-0.1-0.1-0.2-0.2-0.2c-2.4-0.9-3.2-2.3-3.4-3.1v-0.1
			c-0.1-0.3-0.2-0.6,0.3-0.9c0.4-0.2,0.9-0.5,1.5-0.9c0.9-0.5,1.8-1,2.4-1.5c0.1-0.1,0.1-0.2,0.1-0.3c0-0.1-0.1-0.2-0.2-0.2
			c-3.6-1.1-5.5-3.7-5.5-7.6c0-2.5,1.2-4.8,3.3-6.3c1.5-1.1,5.1-2.4,7.5-2.4h0.2c2.4,0,3.8,0.5,5.7,1.2c1,0.3,2,0.5,3.4,0.5
			c2,0,2.9-0.6,3.6-1.3c0.1,0.1,0.2,0.3,0.2,1c0.1,0.6-0.2,1.6-0.7,2.3c-0.4,0.5-1.4,0.9-2.3,0.9h-0.3c-0.9-0.1-1.4-0.2-1.4-0.2
			l-0.2,0.1c-0.1,0.1,0,0.2,0.1,0.3l0.1,0.1c0.1,0.4,0.3,1.8,0.3,2.1c0,4.1-1.7,5.9-3.5,7.2c-1.8,1.2-3.8,2-6.1,2.2
			c-0.1,0-0.3,0-0.7,0.1c-0.3,0-0.6,0.1-0.7,0.1h-0.1c-0.4,0.1-1.5,0.6-1.5,1.4c0,0.7,0.5,1.6,2.7,1.8c0.5,0,0.9,0,1.5,0.1
			c3,0.2,6.7,0.4,8.4,1c2.4,0.8,3.9,2.9,3.9,5.3c0,3.7-2.8,7.1-7.3,9.3C177.9,82.7,175.7,83.2,173.2,83.2L173.2,83.2z M202.9,48.3
			c-1.1,0-2.1,0.2-2.8,0.7c-2,1.2-3.1,3.6-3.1,7.1c0,6.5,3.4,11.1,8.3,11.1c1.5,0,2.6-0.4,3.6-1.2c1.5-1.2,2.3-3.6,2.3-6.9
			C211.2,52.7,207.8,48.3,202.9,48.3L202.9,48.3L202.9,48.3z M203.8,69.7c-8.8,0-12-6.2-12-12.1c0-4.1,1.7-7.2,5.1-9.5
			c2.4-1.4,5.4-2.2,8-2.2c6.8,0,11.5,4.6,11.5,11.3c0,4.5-1.9,8.1-5.5,10.3C209.2,68.7,206.2,69.7,203.8,69.7z M111.1,48.3
			c-1.1,0-2.1,0.2-2.8,0.7c-2,1.2-3.1,3.6-3.1,7.1c0,6.5,3.4,11.1,8.3,11.1c1.5,0,2.6-0.4,3.6-1.2c1.5-1.2,2.3-3.6,2.3-6.9
			C119.4,52.7,116.1,48.3,111.1,48.3L111.1,48.3z M112,69.7c-8.8,0-12-6.2-12-12.1c0-4.1,1.7-7.2,5.1-9.5c2.4-1.4,5.4-2.2,8-2.2
			c6.8,0,11.5,4.6,11.5,11.3c0,4.5-1.9,8.1-5.5,10.3C117.5,68.7,114.5,69.7,112,69.7z M52.6,69.2c-0.1-0.1-0.2-0.6-0.2-1.1
			c0-0.4,0.1-0.6,0.2-0.7c1.1-0.2,1.7-0.3,2.3-0.4c1-0.3,1.5-0.8,1.5-2c0.2-3,0.2-8.7,0.1-12.6v-0.1c0-0.4,0-1-0.6-1.4
			c-0.8-0.5-1.8-0.9-3.1-1.3C52.3,49.2,52,49,52,48.7c0-0.3,0.3-0.6,1-0.7c1.7-0.2,6.2-1.2,8-1.9c0.1,0.1,0.3,0.4,0.3,0.8l-0.1,0.5
			c-0.1,0.5-0.1,1.2-0.1,1.8c0,0.2,0.2,0.3,0.4,0.3c0.1,0,0.2-0.1,0.3-0.1c3.3-2.5,6.3-3.4,7.9-3.4c2.5,0,4.5,1.1,6,3.5
			c0.1,0.2,0.2,0.2,0.4,0.2c0.1,0,0.3-0.1,0.3-0.2c3.1-2.2,6.1-3.6,8.2-3.6c4.8,0,7.7,3.4,7.7,9.3c0,1.6,0,3.8-0.1,5.7
			c0,1.7-0.1,3.3-0.1,4.5c0,0.2,0.4,1,0.9,1.2c0.7,0.3,1.7,0.5,3,0.7h0.1c0.1,0.3-0.1,1.6-0.3,1.9c-0.3,0-0.8,0-1.3,0
			c-1.3-0.1-2.6-0.1-4-0.1c-3.2,0-4.9,0-6.5,0.1c-0.1-0.4-0.2-1.6,0-1.9c0.9-0.1,1.4-0.3,2-0.4c1-0.3,1.3-0.7,1.4-2
			c0-0.9,0.2-9-0.1-11c-0.3-2-1.9-4.3-5.3-4.3c-1.3,0-3.3,0.5-5.3,1.9c-0.1,0.1-0.2,0.3-0.2,0.5v0.1c0.2,1,0.2,2.2,0.2,4.1v3.2
			c0,2.2-0.1,4.3,0,5.9c0,1.1,0.7,1.3,1.2,1.5c0.3,0,0.5,0.1,0.8,0.1c0.5,0.1,0.9,0.2,1.7,0.3c0.1,0.2,0.1,0.8-0.1,1.4
			c-0.1,0.3-0.2,0.4-0.2,0.5c-1.8,0-3.6-0.1-6.2-0.1c-0.8,0-2.1,0.1-3.3,0.1c-0.9,0-1.8,0-2.3,0c-0.1-0.1-0.2-0.4-0.2-1
			c0-0.4,0.1-0.8,0.2-0.9c0.3,0,0.5-0.1,0.7-0.1c0.6-0.1,1.1-0.2,1.7-0.3c0.9-0.2,1.2-0.7,1.2-1.8c0.2-2.5,0.3-9.6-0.1-11.4
			c-0.6-2.9-2.3-4.3-5.1-4.3c-1.6,0-3.6,0.7-5.3,1.9c-0.3,0.2-0.5,0.7-0.5,1.1v2.9c0,3.6,0,8.1,0.1,10c0.1,0.6,0.3,1.3,1.5,1.5
			c0.3,0.1,0.7,0.2,1.2,0.2l0.9,0.1c0.1,0.3,0.1,1.5-0.2,1.9c-0.5,0-1.1,0-1.9,0c-1.1-0.1-2.5-0.1-4.1-0.1c-1.8,0-3.1,0-4.2,0.1
			C53.8,69.2,53.2,69.2,52.6,69.2L52.6,69.2z"/>
		<path id="svg_3" class="st3" d="M25.2,81.2l-2.1-0.7c0,0,0.3-10.4-3.6-11.2c-2.6-2.9,0.4-122.9,9.8-0.4c0,0-3.2,1.5-3.8,4.2
			C24.8,75.7,25.2,81.2,25.2,81.2z"/>
		<path id="svg_4" class="st4" d="M25.2,81.2l-2.1-0.7c0,0,0.3-10.4-3.6-11.2c-2.6-2.9,0.4-122.9,9.8-0.4c0,0-3.2,1.5-3.8,4.2
			C24.8,75.7,25.2,81.2,25.2,81.2z"/>
		<path id="svg_5" class="st3" d="M26.3,71.1c0,0,18.7-11.8,14.3-36.3C36.4,17,26.5,11.1,25.4,8.9c-1.2-1.6-2.3-4.4-2.3-4.4
			l0.8,49.6C23.8,54.1,22.2,69.3,26.3,71.1"/>
		<path id="svg_6" class="st5" d="M26.3,71.1c0,0,18.7-11.8,14.3-36.3C36.4,17,26.5,11.1,25.4,8.9c-1.2-1.6-2.3-4.4-2.3-4.4
			l0.8,49.6C23.8,54.1,22.2,69.3,26.3,71.1"/>
		<path id="svg_7" class="st3" d="M22,71.8c0,0-17.5-11.5-16.5-31.7c1-20.2,13.4-30.2,15.8-32c1.6-1.6,1.6-2.2,1.7-3.8
			c1.1,2.2,0.9,33.6,1,37.3C24.5,55.8,23.2,69.1,22,71.8L22,71.8z"/>
		<path id="svg_8" class="st6" d="M22,71.8c0,0-17.5-11.5-16.5-31.7c1-20.2,13.4-30.2,15.8-32c1.6-1.6,1.6-2.2,1.7-3.8
			c1.1,2.2,0.9,33.6,1,37.3C24.5,55.8,23.2,69.1,22,71.8L22,71.8z"/>
	</g>
</g>
</svg>
