<svg width="300" height="300" xmlns="http://www.w3.org/2000/svg" preserveAspectRatio="xMinYMin meet">

 <g>
  <title>background</title>
  <rect fill="none" id="canvas_background" height="302" width="302" y="-1" x="-1"/>
 </g>
 <g>
  <title>Layer 1</title>
  <path id="svg_3" fill="#BBE6FB" d="m228.113065,135.449749c1.9,21.9 -32.6,42.8 -77.1,46.6c-44.5,3.8 -82,-10.9 -83.9,-32.8c-1.9,-21.9 32.6,-42.8 77.1,-46.6c44.4,-3.8 82,10.8 83.9,32.8"/>
  <path id="svg_4" fill="#FFF" d="m145.413065,105.149749c-17,-0.3 -36.8,6.5 -51.6,12.8c-1.5,4.4 -2.4,9.1 -2.4,14c0,26 23.5,47.1 52.5,47.1s52.6,-21 52.6,-47.1c0,-8.2 -2.4,-16 -6.5,-22.7c-11.8,-1.8 -28.1,-3.8 -44.6,-4.1"/>
  <path id="svg_5" fill="#FFF" d="m144.013065,105.149749c-9.4,-0.6 -25.6,4.3 -39.1,9.2c-2.1,4.8 -3.2,10.1 -3.2,15.7c0,22.8 20.7,41.3 42.5,41.3c21.7,0 40.9,-18.5 42.5,-41.3c0.5,-7.4 -2,-14.4 -5.6,-20.4c-13.9,-2.4 -28.7,-3.9 -37.1,-4.5"/>
  <path id="svg_6" fill="#373535" d="m119.913065,127.149749c1.2,-2.6 2.9,-3.8 4.6,-5.9c-0.2,-0.5 -0.6,-2.2 -0.6,-2.7c0,-2.6 2.1,-4.6 4.6,-4.6c0.6,0 1.2,0.1 1.7,0.3c7.7,-5.9 17.8,-8.4 28,-6.1c0.9,0.2 1.8,0.5 2.7,0.7c-10,-1.4 -21.4,2.2 -29.1,8.4c0.2,0.6 0.9,2.1 0.9,2.8c0,2.6 -1.7,3.2 -4.2,3.2c-0.6,0 -1.1,-0.1 -1.7,-0.3c-1.7,2.3 -3.9,6.8 -4.9,9.6c4.3,3.8 8.1,5.2 13.1,7.1c0,-0.2 0.2,-0.5 0.2,-0.7c0,-7.7 6.8,-14 14.5,-14c6.9,0 12.7,5 13.8,11.6c3.5,-2.2 6.8,-3.9 9.3,-7.1c-0.6,-0.7 -1.2,-2.8 -1.2,-3.8c0,-2.3 1.9,-4.2 4.2,-4.2c0.3,0 0.6,0 1,0.1c1.3,-2.7 2.3,-5.5 2.9,-8.4c-12.1,-9 -35.5,-7.7 -35.5,-7.7s-18.6,-1 -31.2,5.2c0.9,5.8 3.3,11.6 6.9,16.5"/>
  <path id="svg_7" fill="#373535" d="m177.713065,123.649749c0.9,0.8 1.3,1.4 1.7,2.1c1.1,2 -1.1,3.9 -3.5,3.9c-0.2,0 -0.5,0 -0.7,-0.1c-2.6,4.1 -7.2,9.3 -11.3,12c6.3,1 12.2,3.5 16.8,7.4c3.4,-6.1 6,-15 6,-22.5c0,-5.7 -2.5,-9.9 -6.3,-13c-0.1,3.1 -1.8,7.4 -2.7,10.2m-50.8,38.8c2.1,-5.8 7.2,-10.2 12.1,-14.1c-0.7,-1 -1.8,-3.4 -2.2,-4.5c-5.9,-1.8 -11.1,-5.2 -15.2,-9.6c0,0.1 -0.1,0.3 -0.1,0.4c-0.8,3.4 -0.9,6.9 -0.5,10.2c2.8,0.5 5,3 5,6c0,1.8 -1.6,4.3 -2.8,5.5c1.2,2.6 2.1,4 3.7,6.1"/>
  <path id="svg_8" fill="#373535" d="m126.513065,167.249749c-2.5,-2.5 -4.2,-7.4 -5.8,-10.5c-0.3,0 -0.6,0.1 -0.9,0.1c-3.4,0 -6.9,-2.8 -6.1,-6.1c0.4,-1.8 1.7,-3 3.7,-4c-0.5,-3.8 -0.6,-9.1 0.3,-13c0.2,-1.1 0.8,-1.6 1.1,-2.7c-3.7,-5.4 -6.1,-12.6 -6.1,-19.7l0,-0.8c-6.3,3.2 -11,8.1 -11,15.9c0,17.3 10,34.3 24.8,40.9l0,-0.1m36.5,-23.9c-1.9,5.4 -7.1,9.4 -13.2,9.4c-3.3,0 -6.3,-1.1 -8.6,-3c-4.9,3.8 -9.4,10.5 -11.6,16.4c1,1.1 1.7,2 2.9,3c3.4,0.9 8.2,0 11.9,0c14.9,0 28.2,-6.6 35.8,-18.3c-5.2,-3.6 -11.2,-7 -17.2,-7.5"/>
  <path id="svg_9" fill="#1287B1" d="m119.513065,129.149749c1.2,-2.6 2.6,-4.9 4.3,-7.1c-0.2,-0.5 -0.3,-1.1 -0.3,-1.6c0,-2.6 2.1,-4.6 4.6,-4.6c0.6,0 1.2,0.1 1.7,0.3c7.7,-5.9 17.8,-8.4 28,-6.1c0.9,0.2 1.8,0.5 2.7,0.7c-10,-1.4 -20.4,1.7 -28.1,7.9c0.2,0.6 0.4,1.2 0.4,1.8c0,2.6 -2.1,4.6 -4.6,4.6c-0.6,0 -1.1,-0.1 -1.7,-0.3c-1.7,2.3 -3.2,4.9 -4.2,7.7c3.7,3.9 8.2,7.1 13.2,8.9l0,-0.7c0,-7.7 6.3,-14 14,-14c6.9,0 12.7,5 13.8,11.6c3.5,-2.2 6.5,-5 9.1,-8.3c-0.6,-0.7 -1,-1.6 -1,-2.6c0,-2.3 1.9,-4.2 4.2,-4.2c0.3,0 0.6,0 1,0.1c1.3,-2.7 2.3,-5.5 2.9,-8.4c-12.1,-9 -35.5,-7.7 -35.5,-7.7s-18.6,-1 -31.2,5.2c0.7,6.1 3.1,11.9 6.7,16.8"/>
  <path id="svg_10" fill="#1287B1" d="m178.313065,124.349749c0.9,0.8 1.4,1.9 1.4,3.1c0,2.3 -1.9,4.2 -4.2,4.2c-0.2,0 -0.5,0 -0.7,-0.1c-2.6,4.1 -6.1,7.6 -10.2,10.2c6,0.9 11.7,3.5 16.4,7.4c3.4,-6.1 5.4,-13.2 5.4,-20.7c0,-5.7 -2.5,-9.9 -6.3,-13c-0.2,3.1 -0.8,6.1 -1.8,8.9m-50.8,39.4c2.1,-5.8 5.7,-10.9 10.6,-14.8c-0.7,-1 -1.3,-2 -1.7,-3.2c-5.9,-1.8 -11.1,-5.2 -15.2,-9.6c0,0.1 -0.1,0.3 -0.1,0.4c-0.8,3.4 -0.9,6.9 -0.5,10.2c2.8,0.5 5,3 5,6c0,1.8 -0.8,3.4 -2,4.5c1,2.3 2.4,4.5 3.9,6.5"/>
  <path id="svg_11" fill="#1287B1" d="m126.513065,167.149749c-2.5,-2.5 -4.6,-5.3 -6.2,-8.4c-0.3,0 -0.6,0.1 -0.9,0.1c-3.4,0 -6.1,-2.7 -6.1,-6.1c0,-2.4 1.4,-4.5 3.4,-5.5c-0.5,-3.8 -0.3,-7.6 0.6,-11.5c0.2,-1.1 0.6,-2.2 0.9,-3.3c-3.7,-5.4 -5.9,-12 -5.9,-19.1l0,-0.8c-6.3,3.2 -11,8.1 -11,15.9c0,17.3 10.3,32.2 25.1,38.8c0.1,0 0.1,0 0.1,-0.1m36.1,-21.8c-1.9,5.4 -7.1,9.4 -13.2,9.4c-3.3,0 -6.3,-1.1 -8.6,-3c-4.9,3.8 -8.6,9 -10.9,14.9c1,1.1 2.1,2.1 3.2,3.1c3.4,0.9 7,1.4 10.7,1.4c14.9,0 28.1,-7.7 35.7,-19.4c-5,-3.6 -10.9,-5.9 -16.9,-6.4"/>
  <path id="svg_12" fill="#FFF" d="m163.113065,141.749749l12.9,-3.1l-13,-0.7l10.6,-8l-12,4.3l8.1,-11.3l-11.3,7.5l3.9,-13.2l-7.7,10.9l-0.2,-13.8l-5.1,12.3l-4.2,-12.4l0.2,14.6l-7.3,-13.1l4,13.9l-11.9,-8.6l9.3,11.7l-14.8,-5.4l11.6,8.6l-14.9,0.5l15.3,3.9l-15.3,3.3l15.1,1.1l-12.7,8.1l13.1,-4.7l-9.1,11.5l11.5,-9.3l-4.1,15.4l8.9,-12.6l-1.2,14.8l5,-13.5l4.3,14.1l1,-14.2l6.4,12.1l-3.8,-13.8l11.6,9l-7.5,-11.5l12.8,5l-9.8,-9.6l13.1,1l-12.8,-4.8z"/>
  <path id="svg_13" fill="#373535" fill-opacity="0.35" d="m25.413065,166.449749c40.1,-40.1 72.1,-52.5 101.2,-58.1c3.8,-0.7 4.6,-9.2 4.6,-9.2s0.5,6.2 3.2,7c2.7,0.8 6.2,-9.7 6.2,-9.7s-3.2,9.4 0,10c3.2,0.5 9.2,-9.2 9.2,-9.2s-2.4,8.3 -0.8,8.9c1.6,0.5 9.7,-12.1 9.7,-12.1s-4.8,8.3 -0.3,9.2c4.6,0.8 11.3,-5.7 11.3,-5.7s-5.2,5.9 -2.9,6.8c10,3.5 18,-9.4 18,-9.4s-1.9,5.7 -6.7,11.9c10.5,2.7 18.3,-13.1 18.3,-13.1l-7.8,15.8c4,2 20.1,-16.6 20.1,-16.6s-8.3,14.5 -13.2,17.5c2.7,2.2 12.4,-6.5 12.4,-6.5s-7.8,9.7 -4.8,10.2c4.3,3.5 20.2,-18 20.2,-18s-6.2,12.7 -15.3,22.6c7.6,3.9 26.6,-20.6 26.6,-20.6s-0.5,7.8 -14.3,20.2c10.2,-1.3 23.4,-20.7 23.4,-20.7s-4.8,14.5 -16.4,24.8c10,-1 26.1,-25.8 26.1,-25.8s-6.2,17.2 -18.8,27.2c14,3.1 34.2,-17.8 34.2,-17.8s-7.9,14.8 -18.3,20.9c11.6,4.4 27.5,-13.9 27.5,-13.9s-15.9,24.5 -41.2,23.4c-8.3,-0.4 -33.4,-25.2 -87.2,-23.2c-71.2,2.6 -86.2,32.8 -124.2,53.2"/>
  <path id="svg_14" fill="#373535" d="m27.013065,163.449749c40.1,-40.1 72.1,-52.5 101.2,-58.1c3.8,-0.7 4.6,-9.2 4.6,-9.2s0.5,6.2 3.2,7c2.7,0.8 6.2,-9.7 6.2,-9.7s-3.2,9.4 0,10c3.2,0.5 9.2,-9.2 9.2,-9.2s-2.4,8.3 -0.8,8.9c1.6,0.5 9.7,-12.1 9.7,-12.1s-4.8,8.3 -0.3,9.2c4.6,0.8 11.3,-5.7 11.3,-5.7s-5.2,5.9 -2.9,6.8c10,3.5 18,-9.4 18,-9.4s-1.9,5.7 -6.7,11.9c10.5,2.7 18.3,-13.1 18.3,-13.1l-7.8,15.8c4,2.2 20.2,-16.4 20.2,-16.4s-8.3,14.5 -13.2,17.5c2.7,1.9 12.4,-6.7 12.4,-6.7s-7.8,9.7 -4.8,10.2c4.3,3.5 20.2,-18 20.2,-18s-6.3,12.7 -15.4,22.6c7.6,3.8 26.7,-20.7 26.7,-20.7s-0.5,7.8 -14.3,20.2c10.2,-1.3 23.4,-20.7 23.4,-20.7s-4.8,14.5 -16.4,24.8c10,-1 26.1,-25.8 26.1,-25.8s-6.2,17.2 -18.8,27.2c14,3.1 34.2,-17.8 34.2,-17.8s-7.9,14.8 -18.3,20.9c11.6,4.4 27.5,-13.9 27.5,-13.9s-15.9,24.5 -41.2,23.4c-8.3,-0.4 -33.4,-25.2 -87.2,-23.2c-71.2,2.7 -86.3,32.8 -124.3,53.3"/>
  <path id="svg_15" fill="#373535" fill-opacity="0.35" d="m24.413065,170.849749c21.2,10.6 40.6,-1.6 65,5.3c18.6,5.2 41.2,11.7 71.9,7.2c30.7,-4.4 56.9,-17.8 69.5,-41.6c3.9,-10.6 19.8,2.4 19.8,2.4s-11.6,-4.8 -11.3,-2.6c0.3,2.3 17.4,10.2 17.4,10.2s-15.5,-4.8 -14.5,-1.2c0.9,3.6 19.4,18.2 19.4,18.2s-21.1,-15.8 -22.8,-13.6c-1.8,2.2 8.9,10.9 8.9,10.9s-17.6,-10.9 -23.8,-7.7c-4.5,2.3 18.3,17.2 18.3,17.2s-14.8,-11.3 -18.3,-8.3s16.7,27.2 16.7,27.2s-23,-24.8 -25.3,-23.6c-2.3,1.2 6.3,13.1 6.3,13.1s-11.2,-12.4 -14.3,-10.3c-3.1,2.2 16.2,34.3 16.2,34.3s-20.9,-32.9 -29.6,-27.4c13.5,29.7 8.5,33.9 8.5,33.9s-1.7,-30.3 -18.6,-29.5c-8.5,0.4 4,22.6 4,22.6s-11.5,-20.3 -19.2,-19.9c14.1,26.8 9.1,37.6 9.1,37.6s2.3,-22.9 -16.8,-35.6c7.3,6.5 -4.6,35.6 -4.6,35.6s10.4,-42.9 -7.7,-34.7c-2.9,1.3 -0.2,21.4 -0.2,21.4s-3.6,-23 -9.1,-21.8c-3.2,0.7 -20.2,31.9 -20.2,31.9s13.9,-33.7 9.7,-32.3c-3.1,1 -8.9,14.9 -8.9,14.9s2.8,-13.7 0,-14.5c-2.8,-0.8 -18.6,14.5 -18.6,14.5s11.7,-13.7 9.7,-16.6c-3.1,-4.3 -6.6,-4.5 -10.9,-2.8c-6.2,2.4 -14.5,13.7 -14.5,13.7s8.3,-11.5 6.9,-15.7c-2.3,-6.9 -26.2,13.3 -26.2,13.3s14.1,-13.3 10.9,-16.2c-3.2,-2.8 -20.8,-2 -26.2,-2c-16.1,0.2 -21.7,-3.6 -26.6,-7.5"/>
  <path id="svg_16" fill="#373535" d="m23.513065,168.449749c21.2,10.6 40.6,-1.6 65,5.3c18.6,5.2 41.2,11.7 71.9,7.2c30.7,-4.4 56.9,-17.8 69.5,-41.6c3.9,-10.6 19.8,2.4 19.8,2.4s-11.6,-4.8 -11.3,-2.6c0.3,2.3 17.4,10.2 17.4,10.2s-15.5,-4.8 -14.5,-1.2c0.9,3.6 19.4,18.2 19.4,18.2s-20.9,-15.9 -22.6,-13.7c-1.7,2.2 8.9,10.9 8.9,10.9s-17.6,-10.9 -23.8,-7.7c-4.5,2.3 18.3,17.2 18.3,17.2s-14.8,-11.3 -18.3,-8.3s16.7,27.2 16.7,27.2s-22.9,-24.8 -25.2,-23.6c-2.3,1.2 6.3,13.1 6.3,13.1s-11.4,-12.3 -14.5,-10.2c-3.1,2.2 16.1,34.3 16.1,34.3s-20.9,-33 -29.5,-27.5c13.6,29.8 8.5,34 8.5,34s-1.7,-30.3 -18.6,-29.5c-8.5,0.4 4,22.6 4,22.6s-11.4,-20.2 -19.1,-19.8c14.1,26.8 9.1,37.6 9.1,37.6s2.3,-22.9 -16.8,-35.6c7.3,6.5 -4.6,35.6 -4.6,35.6s10.4,-42.9 -7.7,-34.7c-2.9,1.3 -0.2,21.4 -0.2,21.4s-3.6,-23 -9.1,-21.8c-3.2,0.7 -20.2,31.9 -20.2,31.9s13.9,-33.7 9.7,-32.3c-3.1,1 -8.9,14.9 -8.9,14.9s2.8,-13.7 0,-14.5c-2.8,-0.8 -18.6,14.5 -18.6,14.5s11.7,-13.7 9.7,-16.6c-3.1,-4.3 -6.6,-4.5 -10.9,-2.8c-6.2,2.4 -14.5,13.7 -14.5,13.7s8.3,-11.5 6.9,-15.7c-2.3,-6.9 -26.2,13.3 -26.2,13.3s14.1,-13.3 10.9,-16.2c-3.2,-2.8 -20.8,-2 -26.2,-2c-16.3,0.1 -21.9,-3.7 -26.8,-7.6"/>
 </g>
</svg>