<svg width="300" height="300" xmlns="http://www.w3.org/2000/svg" preserveAspectRatio="xMinYMin meet">

 <g>
  <title>background</title>
  <rect fill="none" id="canvas_background" height="302" width="302" y="-1" x="-1"/>
 </g>
 <g>
  <title>Layer 1</title>
  <path id="svg_1" fill="#912626" d="m268.459936,211.513236c-13.662,7.121 -84.434,36.22 -99.501,44.075c-15.067,7.856 -23.437,7.78 -35.34,2.09c-11.902,-5.69 -87.216,-36.112 -100.783,-42.597c-6.78,-3.24 -10.346,-5.976 -10.346,-8.56l0,-25.876s98.05,-21.345 113.879,-27.024c15.828,-5.679 21.32,-5.884 34.79,-0.95c13.472,4.936 94.018,19.468 107.331,24.344l-0.006,25.51c0.002,2.558 -3.07,5.364 -10.024,8.988"/>
  <path id="svg_2" fill="#C6302B" d="m268.454936,185.790236c-13.661,7.118 -84.431,36.218 -99.498,44.072c-15.066,7.857 -23.436,7.78 -35.338,2.09c-11.903,-5.686 -87.214,-36.113 -100.78,-42.594c-13.566,-6.485 -13.85,-10.948 -0.524,-16.166c13.326,-5.22 88.224,-34.605 104.055,-40.284c15.828,-5.677 21.319,-5.884 34.789,-0.948c13.471,4.934 83.819,32.935 97.13,37.81c13.316,4.881 13.827,8.9 0.166,16.02"/>
  <path id="svg_3" fill="#912626" d="m268.459936,169.644236c-13.662,7.122 -84.434,36.22 -99.501,44.078c-15.067,7.853 -23.437,7.777 -35.34,2.087c-11.903,-5.687 -87.216,-36.112 -100.783,-42.597c-6.78,-3.24 -10.346,-5.972 -10.346,-8.557l0,-25.879s98.05,-21.344 113.879,-27.023c15.828,-5.679 21.32,-5.885 34.79,-0.95c13.473,4.935 94.019,19.464 107.331,24.341l-0.006,25.513c0.002,2.557 -3.07,5.363 -10.024,8.987"/>
  <path id="svg_4" fill="#C6302B" d="m268.454936,143.921236c-13.661,7.12 -84.431,36.218 -99.498,44.075c-15.066,7.854 -23.436,7.777 -35.338,2.087c-11.903,-5.686 -87.214,-36.112 -100.78,-42.594c-13.566,-6.483 -13.85,-10.947 -0.524,-16.167c13.326,-5.217 88.225,-34.604 104.055,-40.282c15.828,-5.678 21.319,-5.884 34.789,-0.949c13.471,4.934 83.819,32.933 97.13,37.81c13.316,4.88 13.827,8.9 0.166,16.02"/>
  <path id="svg_5" fill="#912626" d="m268.459936,126.223236c-13.662,7.12 -84.434,36.22 -99.501,44.078c-15.067,7.854 -23.437,7.777 -35.34,2.087c-11.903,-5.687 -87.216,-36.113 -100.783,-42.595c-6.78,-3.243 -10.346,-5.976 -10.346,-8.558l0,-25.88s98.05,-21.343 113.879,-27.021c15.828,-5.68 21.32,-5.884 34.79,-0.95c13.473,4.935 94.019,19.464 107.331,24.341l-0.006,25.512c0.002,2.555 -3.07,5.361 -10.024,8.986"/>
  <path id="svg_6" fill="#C6302B" d="m268.454936,100.500236c-13.661,7.12 -84.431,36.22 -99.498,44.074c-15.066,7.854 -23.436,7.777 -35.338,2.09c-11.902,-5.69 -87.214,-36.114 -100.779,-42.597c-13.567,-6.482 -13.85,-10.947 -0.525,-16.166c13.326,-5.218 88.225,-34.601 104.055,-40.281c15.828,-5.679 21.319,-5.883 34.789,-0.948c13.471,4.935 83.819,32.934 97.13,37.811c13.316,4.876 13.827,8.897 0.166,16.017"/>
  <path id="svg_7" fill="#FFF" d="m181.772936,75.327236l-22.01,2.285l-4.927,11.856l-7.958,-13.23l-25.415,-2.284l18.964,-6.839l-5.69,-10.498l17.755,6.944l16.738,-5.48l-4.524,10.855l17.067,6.391m-28.251,57.518l-41.077,-17.037l58.86,-9.035l-17.783,26.072m-56.95,-50.928c17.375,0 31.46,5.46 31.46,12.194c0,6.736 -14.085,12.195 -31.46,12.195s-31.46,-5.46 -31.46,-12.195c0,-6.734 14.085,-12.194 31.46,-12.194"/>
  <path id="svg_8" fill="#621B1C" d="m207.784936,78.568236l34.836,13.766l-34.806,13.753l-0.03,-27.52"/>
  <path id="svg_9" fill="#9A2928" d="m169.244936,93.813236l38.54,-15.245l0.03,27.519l-3.779,1.478l-34.791,-13.752"/>
 </g>
</svg>